<svg width="24" height="24" viewBox="0 0 24 24" fill="none" xmlns="http://www.w3.org/2000/svg">
<path d="M7.80859 11.1668C8.26676 11.167 8.64152 11.5417 8.6416 11.9998V14.617C8.64174 15.2335 8.98383 15.8 9.52539 16.0916C9.76698 16.2249 10.0337 16.2918 10.3086 16.2918C10.6252 16.2918 10.9419 16.1997 11.2168 16.0164L12.0088 15.4998L12.7412 15.992C13.2495 16.3337 13.8997 16.3745 14.4414 16.0828C14.9914 15.7912 15.333 15.2332 15.333 14.6082V11.9998C15.3331 11.5416 15.7087 11.1668 16.167 11.1668H17.833C18.2913 11.1668 18.6669 11.5416 18.667 11.9998V16.9998C18.667 18.8415 17.1747 20.3328 15.333 20.3328H8.66699C6.82533 20.3328 5.33301 18.8415 5.33301 16.9998V11.9998C5.33309 11.5416 5.70871 11.1668 6.16699 11.1668H7.80859ZM13.6416 11.1668C14.0999 11.1668 14.4745 11.5416 14.4746 11.9998V14.6082C14.4746 15.2749 13.7336 15.6746 13.1836 15.2996L12.4336 14.7996C12.1586 14.6163 11.7999 14.6164 11.5166 14.7996L10.7334 15.3162C10.1834 15.6829 9.4502 15.2832 9.4502 14.6248V11.9998C9.45028 11.5416 9.82496 11.1669 10.2832 11.1668H13.6416ZM14.5586 3.90023C14.8669 3.59189 15.3753 3.59189 15.6836 3.90023L16.8672 5.08284C17.1672 5.38284 17.1749 5.8585 16.8916 6.16683H18.25C19.4748 6.16683 19.9168 6.9164 19.917 7.83284V8.66683C19.9169 9.58342 19.4749 10.3328 18.25 10.3328H5.75C4.47508 10.3328 4.08306 9.58342 4.08301 8.66683V7.83284C4.08314 6.9164 4.47522 6.16683 5.75 6.16683H7.09961C6.81636 5.85849 6.82503 5.38281 7.125 5.08284L8.30859 3.90023C8.61693 3.59189 9.12526 3.59189 9.43359 3.90023L11.7002 6.16683H12.292L14.5586 3.90023Z" fill="#0F172A"/>
</svg>
