<svg width="24" height="24" viewBox="0 0 24 24" fill="none" xmlns="http://www.w3.org/2000/svg">
<path d="M18.667 10.2002C19.1251 10.2004 19.4999 10.5751 19.5 11.0332V16.167C19.4999 18.6669 18.2496 20.333 15.333 20.333H8.66699C5.75042 20.333 4.50008 18.6669 4.5 16.167V11.0332C4.50011 10.5751 4.87489 10.2004 5.33301 10.2002H18.667ZM9.25 15.7666C9.08337 15.7333 8.91658 15.7498 8.7666 15.8164C8.65827 15.8581 8.57454 15.9172 8.49121 15.9922C8.34156 16.1504 8.25011 16.3667 8.25 16.583C8.25 16.7995 8.34142 17.0165 8.49121 17.1748C8.57449 17.2498 8.65837 17.3079 8.7666 17.3496C8.8665 17.3912 8.97478 17.4169 9.08301 17.417C9.14133 17.417 9.19169 17.4087 9.25 17.4004C9.3 17.3921 9.35039 17.3746 9.40039 17.3496C9.45013 17.333 9.50006 17.3085 9.5498 17.2754C9.59147 17.2504 9.63314 17.2081 9.6748 17.1748C9.82478 17.0165 9.91699 16.7997 9.91699 16.583C9.91688 16.3665 9.82464 16.1504 9.6748 15.9922C9.63314 15.9589 9.59147 15.9249 9.5498 15.8916C9.49995 15.8584 9.45024 15.8331 9.40039 15.8164C9.35039 15.7914 9.3 15.7749 9.25 15.7666ZM12.5918 15.9922C12.2835 15.6839 11.7165 15.6839 11.4082 15.9922C11.2585 16.1504 11.1671 16.3666 11.167 16.583C11.167 16.7996 11.2583 17.0165 11.4082 17.1748C11.5665 17.3248 11.7833 17.417 12 17.417C12.2167 17.417 12.4335 17.3248 12.5918 17.1748C12.7417 17.0165 12.833 16.7996 12.833 16.583C12.8329 16.3666 12.7415 16.1504 12.5918 15.9922ZM15.5088 15.9922C15.2005 15.6839 14.6335 15.6839 14.3252 15.9922C14.1754 16.1504 14.0831 16.3665 14.083 16.583C14.083 16.7997 14.1752 17.0165 14.3252 17.1748C14.4835 17.3248 14.7003 17.417 14.917 17.417C15.1336 17.4169 15.3505 17.3247 15.5088 17.1748C15.6586 17.0165 15.75 16.7995 15.75 16.583C15.7499 16.3667 15.6584 16.1504 15.5088 15.9922ZM9.40039 12.9004C9.09206 12.7671 8.72454 12.8419 8.49121 13.0752C8.34137 13.2335 8.25 13.4505 8.25 13.667C8.25007 13.8836 8.34128 14.1005 8.49121 14.2588C8.64947 14.4087 8.86645 14.4999 9.08301 14.5C9.29954 14.5 9.5165 14.4086 9.6748 14.2588C9.82475 14.1005 9.91692 13.8836 9.91699 13.667C9.91699 13.4503 9.8248 13.2335 9.6748 13.0752C9.59991 13.0003 9.50851 12.942 9.40039 12.9004ZM12.5918 13.0752C12.3585 12.8419 11.9919 12.7671 11.6836 12.9004C11.5753 12.9421 11.4832 13.0002 11.4082 13.0752C11.2583 13.2335 11.167 13.4504 11.167 13.667C11.1671 13.8836 11.2583 14.1005 11.4082 14.2588C11.5665 14.4087 11.7834 14.5 12 14.5C12.0583 14.5 12.1087 14.4917 12.167 14.4834C12.1917 14.4793 12.2165 14.4731 12.2412 14.4648L12.3916 14.4023C12.4166 14.3898 12.4418 14.3751 12.4668 14.3584C12.5084 14.3251 12.5502 14.2921 12.5918 14.2588C12.7417 14.1005 12.8329 13.8836 12.833 13.667C12.833 13.4504 12.7417 13.2335 12.5918 13.0752ZM15.083 12.8496C14.9165 12.8164 14.7495 12.8338 14.5996 12.9004C14.4915 12.942 14.4084 13.0003 14.3252 13.0752C14.1752 13.2335 14.083 13.4503 14.083 13.667C14.0831 13.8836 14.1753 14.1005 14.3252 14.2588C14.4835 14.4086 14.7005 14.5 14.917 14.5C14.9668 14.5 15.0249 14.4917 15.083 14.4834C15.108 14.4792 15.1333 14.4731 15.1582 14.4648L15.3086 14.4023C15.3335 14.3899 15.3588 14.375 15.3838 14.3584C15.4254 14.3251 15.4672 14.292 15.5088 14.2588C15.6587 14.1005 15.7499 13.8836 15.75 13.667C15.75 13.4505 15.6586 13.2335 15.5088 13.0752C15.4671 13.0419 15.4254 13.0079 15.3838 12.9746C15.3589 12.958 15.3335 12.9441 15.3086 12.9316L15.1582 12.8691C15.1332 12.8608 15.108 12.8538 15.083 12.8496ZM15.333 3.04199C15.6747 3.04199 15.958 3.32533 15.958 3.66699V4.9668C18.208 5.17513 19.3001 6.51712 19.4668 8.50879C19.4915 8.74193 19.2913 8.9502 19.0498 8.9502H4.9502C4.71701 8.9502 4.51682 8.75025 4.5332 8.50879C4.69987 6.51712 5.79199 5.17513 8.04199 4.9668V3.66699C8.04199 3.32533 8.32533 3.04199 8.66699 3.04199C9.00851 3.04218 9.29199 3.32544 9.29199 3.66699V4.91699H14.708V3.66699C14.708 3.32543 14.9915 3.04217 15.333 3.04199Z" fill="#0F172A"/>
</svg>
