<svg width="24" height="24" viewBox="0 0 24 24" fill="none" xmlns="http://www.w3.org/2000/svg">
<path d="M16.7998 2C19.9998 2 22.0002 4.0002 21.9902 7.2002V16.7998C21.9902 19.9998 19.99 22 16.79 22H14.2002C11.0002 22 9 19.9998 9 16.7998V12.75H13.4404L11.3701 14.8203C11.0802 15.1103 11.0801 15.5899 11.3701 15.8799C11.6601 16.1699 12.1397 16.1698 12.4297 15.8799L15.7803 12.5303C16.0703 12.2403 16.0703 11.7597 15.7803 11.4697L12.4297 8.12012C12.1397 7.83021 11.6601 7.83015 11.3701 8.12012C11.2201 8.27012 11.1504 8.46039 11.1504 8.65039C11.1505 8.84022 11.2203 9.02981 11.3701 9.17969L13.4404 11.25H9V7.2002C9 4.0002 11.0002 2 14.2002 2H16.7998ZM9 11.25V12.75H2.75C2.34 12.75 2 12.41 2 12C2 11.59 2.34 11.25 2.75 11.25H9Z" fill="black"/>
</svg>
