<svg width="24" height="24" viewBox="0 0 24 24" fill="none" xmlns="http://www.w3.org/2000/svg">
<path d="M9.30859 3.66699C10.6334 3.66706 11.167 4.16707 11.167 5.41699V18.583C11.167 19.8329 10.6334 20.3329 9.30859 20.333H5.94141C4.6166 20.3329 4.08301 19.8329 4.08301 18.583V5.41699C4.08301 4.16707 4.6166 3.66706 5.94141 3.66699H9.30859ZM18.0586 14.5C19.3834 14.5001 19.917 15.0001 19.917 16.25V18.583C19.917 19.8329 19.3834 20.3329 18.0586 20.333H14.6914C13.3666 20.3329 12.833 19.8329 12.833 18.583V16.25C12.833 15.0001 13.3666 14.5001 14.6914 14.5H18.0586ZM18.0586 3.66699C19.3834 3.66706 19.917 4.16707 19.917 5.41699V11.083C19.917 12.3329 19.3834 12.8329 18.0586 12.833H14.6914C13.3666 12.8329 12.833 12.3329 12.833 11.083V5.41699C12.833 4.16707 13.3666 3.66706 14.6914 3.66699H18.0586Z" fill="#0F172A"/>
</svg>
