<svg width="24" height="24" viewBox="0 0 24 24" fill="none" xmlns="http://www.w3.org/2000/svg">
<path d="M9.36664 12.4834C10.0833 13.1001 11.0171 13.458 12.0004 13.458C12.992 13.4579 13.9088 13.1166 14.6254 12.5C15.3753 13.1082 16.3084 13.458 17.2582 13.458C17.4081 13.458 17.5581 13.4502 17.6996 13.4336C17.7996 13.4253 17.8922 13.4171 17.9838 13.4004C18.242 13.367 18.4752 13.2918 18.7084 13.2168C19.2501 13.0335 19.808 13.4334 19.808 14V16.4834C19.808 18.7833 17.9419 20.6502 15.642 20.6504C15.4172 20.6504 15.2341 20.467 15.2338 20.2422V18.25C15.2338 17.1834 14.9082 16.3499 14.2748 15.7832C13.7166 15.2751 12.9584 15.0254 12.017 15.0254C11.8088 15.0254 11.6003 15.0336 11.3754 15.0586C9.89222 15.2086 8.76723 16.4582 8.76703 17.958V20.2422C8.76678 20.4668 8.58349 20.6502 8.35883 20.6504C6.05883 20.6504 4.19184 18.7834 4.19183 16.4834V14.0166C4.19192 13.4335 4.76652 13.042 5.30805 13.2334C5.53302 13.3084 5.75833 13.3671 5.99164 13.4004C6.09164 13.4171 6.20023 13.4336 6.30023 13.4336C6.43336 13.4502 6.56652 13.458 6.69965 13.458C7.66628 13.458 8.61665 13.1 9.36664 12.4834ZM11.4584 15.8838C13.3751 15.6838 14.4004 16.5083 14.392 18.25V20.2412C14.392 20.4661 14.2087 20.6503 13.9838 20.6504H10.0082C9.78342 20.6502 9.60004 20.4661 9.60004 20.2412V17.958C9.6002 16.8916 10.4003 15.9922 11.4584 15.8838ZM16.4584 3.04199C18.9 3.04199 20.042 4.06655 20.392 6.58301L20.6332 8.8916C20.7166 9.75827 20.4916 10.5999 19.9916 11.2666C19.3666 12.1333 18.3666 12.625 17.2582 12.625C16.2252 12.6249 15.2339 12.1167 14.5922 11.292C14.0173 12.1252 13.0753 12.6249 12.0004 12.625C10.9256 12.625 9.95874 12.1002 9.39203 11.2588C8.75869 12.1004 7.74958 12.625 6.69965 12.625C5.6165 12.6249 4.64148 12.1579 4.00824 11.333C3.48349 10.6582 3.24144 9.79177 3.32465 8.90039L3.55023 6.6084C3.90856 4.06678 5.04173 3.04203 7.49164 3.04199H16.4584Z" fill="#0F172A"/>
</svg>
