<svg width="25" height="24" viewBox="0 0 25 24" fill="none" xmlns="http://www.w3.org/2000/svg">
<path d="M10.8138 5.49025C11.6738 4.99044 12.993 4.99044 13.8529 5.49025L16.6732 7.12013L18.0336 7.90041L18.1732 7.96974C19.9632 9.17974 20.0834 9.40005 20.0834 11.2901V15.8096C20.0834 17.7096 19.9732 17.9197 18.2133 19.0996L13.8529 21.6201C13.423 21.87 12.8732 21.9902 12.3334 21.9902C11.7835 21.9902 11.2438 21.88 10.8138 21.6201L6.49353 19.1299C4.70353 17.9199 4.58337 17.6996 4.58337 15.8096V11.2901C4.58337 9.40005 4.70349 9.18002 6.45349 8.00002L6.63318 7.91017L7.99353 7.11037L10.8138 5.49025ZM12.9135 11.0596C12.5835 10.5599 12.0733 10.5599 11.7533 11.0596L11.2338 11.8604C11.1537 11.9804 10.9833 12.1202 10.8334 12.1602L9.90369 12.4004C9.33369 12.5504 9.16335 13.05 9.54333 13.5L10.1635 14.2402C10.2634 14.3503 10.3336 14.5601 10.3236 14.71L10.2631 15.6699C10.2231 16.2599 10.6437 16.5696 11.1937 16.3496L12.0834 16C12.2233 15.95 12.4531 15.9501 12.5931 16L13.4838 16.3604C14.0335 16.57 14.4534 16.2695 14.4135 15.6797L14.3529 14.7197C14.343 14.5698 14.4132 14.36 14.5131 14.25L15.1234 13.5C15.5034 13.05 15.3331 12.5504 14.7631 12.4004L13.8334 12.1602C13.6934 12.1202 13.513 11.9903 13.433 11.8604L12.9135 11.0596ZM14.6635 2.00002C16.9134 2.00007 18.1429 3.2403 18.1429 5.49025V6.23048L14.6029 4.1797C13.2629 3.40996 11.3927 3.40979 10.0629 4.1797L6.5238 6.24025V5.49025C6.5238 3.24026 7.75331 2.00002 10.0033 2.00002H14.6635Z" fill="#0F172A"/>
</svg>
