<svg width="24" height="24" viewBox="0 0 24 24" fill="none" xmlns="http://www.w3.org/2000/svg">
<path d="M14.9082 16.5078C14.6999 17.6578 14.4336 18.7916 14.0586 19.8916C14.0419 19.9583 14.0415 20.0085 14.0332 20.0752C13.3833 20.2335 12.6999 20.333 12 20.333C11.2917 20.333 10.6163 20.2335 9.95801 20.0752C9.94967 20.0085 9.95807 19.9583 9.94141 19.8916C9.57475 18.7833 9.30013 17.6578 9.0918 16.5078C10.0584 16.6161 11.025 16.6914 12 16.6914C12.975 16.6914 13.9499 16.6161 14.9082 16.5078ZM19.4336 15.6172C19.4256 15.6502 19.4499 15.6831 19.4502 15.708C18.6252 17.3663 17.2501 18.7083 15.5752 19.5166C15.8918 18.4583 16.158 17.3913 16.333 16.3164C17.383 16.1414 18.4169 15.9172 19.4336 15.6172ZM4.56641 15.6172C5.58298 15.9172 6.63323 16.1414 7.6748 16.3164C7.85812 17.3663 8.07504 18.4082 8.375 19.4248C8.3501 19.4248 8.31694 19.4413 8.29199 19.4414C6.67533 18.6414 5.35814 17.3169 4.5498 15.7002C4.5498 15.6753 4.56621 15.6421 4.56641 15.6172ZM8.86426 8.86426C10.9483 8.60135 13.0517 8.60135 15.1357 8.86426C15.3987 10.9483 15.3987 13.0517 15.1357 15.1357C13.0517 15.3987 10.9483 15.3987 8.86426 15.1357C8.60135 13.0517 8.60135 10.9483 8.86426 8.86426ZM7.49121 9.0918C7.2829 11.025 7.2829 12.975 7.49121 14.9082C6.34142 14.6999 5.20821 14.4335 4.1084 14.0586C4.04173 14.0419 3.99147 14.0503 3.9248 14.042C3.76647 13.3837 3.66699 12.7083 3.66699 12C3.66699 11.3001 3.76649 10.6167 3.9248 9.9668C3.99147 9.95846 4.04173 9.95807 4.1084 9.94141C5.21654 9.57481 6.34142 9.30011 7.49121 9.0918ZM16.5078 9.0918C17.6495 9.30013 18.7916 9.56642 19.8916 9.94141C19.9583 9.95807 20.0085 9.9668 20.0752 9.9668C20.2335 10.6251 20.333 11.3001 20.333 12C20.333 12.7083 20.2335 13.3837 20.0752 14.042C20.0085 14.0503 19.9583 14.0419 19.8916 14.0586C18.7833 14.4252 17.6495 14.6999 16.5078 14.9082C16.7245 12.9749 16.7245 11.0251 16.5078 9.0918ZM8.29199 4.5498C8.31695 4.55003 8.35011 4.5752 8.375 4.5752C8.07505 5.59173 7.85858 6.62495 7.68359 7.6748C6.60864 7.84146 5.54169 8.10816 4.4834 8.4248C5.29174 6.74991 6.63373 5.37477 8.29199 4.5498ZM15.5752 4.4834C17.3001 5.30838 18.6916 6.69994 19.5166 8.4248C18.4666 8.10816 17.408 7.85032 16.333 7.66699C16.158 6.59203 15.9002 5.52503 15.5752 4.4834ZM12 3.66699C12.6999 3.66699 13.3833 3.7665 14.0332 3.9248C14.0415 3.99147 14.0419 4.04173 14.0586 4.1084C14.4335 5.21654 14.6999 6.34975 14.9082 7.49121C12.975 7.27457 11.025 7.27457 9.0918 7.49121C9.30011 6.34975 9.56648 5.20821 9.94141 4.1084C9.95807 4.04173 9.94967 3.99147 9.95801 3.9248C10.6163 3.76647 11.2917 3.66699 12 3.66699Z" fill="#0F172A"/>
</svg>
