<svg width="25" height="24" viewBox="0 0 25 24" fill="none" xmlns="http://www.w3.org/2000/svg">
<path d="M4.59644 14.1494C7.40639 12.2895 11.9568 12.2895 14.7468 14.1494C16.0068 14.9894 16.6968 16.1304 16.7068 17.3604C16.7066 18.6001 16.0066 19.74 14.7468 20.5898C13.3468 21.5298 11.5067 22 9.66675 22C7.82675 22 5.98667 21.5298 4.58667 20.5898C3.3267 19.7498 2.62671 18.6099 2.62671 17.3799C2.62671 16.1499 3.32644 14.9994 4.59644 14.1494ZM14.657 12.79C16.867 12.1501 19.6472 12.58 21.3572 13.96C22.277 14.6999 22.7469 15.63 22.657 16.5898C22.577 17.5598 21.9567 18.3997 20.9167 18.9697C19.9168 19.5197 18.6569 19.78 17.407 19.75C18.1269 19.1 18.5467 18.2897 18.6267 17.4297C18.7266 16.1898 18.1367 14.9997 16.9568 14.0498C16.2869 13.5199 15.5069 13.1 14.657 12.79ZM9.66675 2C12.2867 2 14.4167 4.13 14.4167 6.75C14.4067 9.32 12.3967 11.4002 9.83667 11.4902H9.76636C9.7064 11.4803 9.62648 11.4803 9.54663 11.4902C6.92668 11.4002 4.91675 9.31996 4.91675 6.75C4.91675 4.13 7.04675 2 9.66675 2ZM16.7771 4.07031C18.7369 3.90045 20.4869 5.36004 20.657 7.33984C20.817 9.27976 19.437 10.9798 17.5271 11.21H17.4773C17.4173 11.21 17.3564 11.2105 17.3064 11.2305C16.3367 11.2803 15.447 10.9701 14.7771 10.4004C15.807 9.48049 16.3969 8.10039 16.2771 6.60059C16.2071 5.79059 15.9266 5.04992 15.5066 4.41992C15.8866 4.22992 16.3271 4.11031 16.7771 4.07031Z" fill="#0F172A"/>
</svg>
