<svg width="24" height="24" viewBox="0 0 24 24" fill="none" xmlns="http://www.w3.org/2000/svg">
<path d="M16.1504 3.7168C18.4834 4.00859 19.4999 5.58326 19.5 7.83301V16.167C19.4999 18.6668 18.2495 20.333 15.333 20.333H8.66699C5.75049 20.333 4.50014 18.6668 4.5 16.167V7.83301C4.50007 5.58326 5.51665 4.00859 7.84961 3.7168C8.09113 3.68348 8.30834 3.89133 8.30859 4.13281V9.15039C8.30878 9.78346 8.68352 10.3579 9.2666 10.6162C9.47489 10.7079 9.69158 10.75 9.9082 10.75C10.2997 10.75 10.6913 10.6083 10.9912 10.3252L11.7168 9.6582C11.8834 9.50831 12.1249 9.50831 12.2832 9.6582L13.0088 10.3252C13.4754 10.7582 14.1502 10.8661 14.7334 10.6162C15.3165 10.3579 15.6912 9.78346 15.6914 9.15039V4.13281C15.6917 3.89133 15.9089 3.68348 16.1504 3.7168ZM9.5 16.375C9.15833 16.375 8.875 16.6583 8.875 17C8.87505 17.3416 9.15836 17.625 9.5 17.625H16.583C16.9246 17.625 17.208 17.3416 17.208 17C17.208 16.6583 16.9247 16.375 16.583 16.375H9.5ZM13.042 13.042C12.7003 13.042 12.417 13.3253 12.417 13.667C12.4172 14.0085 12.7005 14.292 13.042 14.292H16.583C16.9245 14.292 17.2078 14.0085 17.208 13.667C17.208 13.3253 16.9247 13.042 16.583 13.042H13.042ZM14.0254 3.66699C14.2585 3.66717 14.4412 3.84994 14.4414 4.08301V9C14.4414 9.36649 14.0089 9.54974 13.7422 9.30859L12.2832 7.9668C12.1249 7.81683 11.8751 7.81681 11.7168 7.9668L10.2588 9.2998C9.99212 9.5498 9.55859 9.35833 9.55859 9V4.08301C9.55876 3.84998 9.7416 3.66723 9.97461 3.66699H14.0254Z" fill="#0F172A"/>
</svg>
