<svg width="24" height="24" viewBox="0 0 24 24" fill="none" xmlns="http://www.w3.org/2000/svg">
<path d="M16.0664 9.76685C16.4746 9.76685 16.8663 9.82557 17.2412 9.93385C18.9078 10.4422 20.1337 11.9917 20.1338 13.8333V15.4583C20.1338 15.6249 20.1245 15.7921 20.1162 15.9504C19.9578 18.8669 18.3332 20.3333 15.25 20.3333H8.75C8.54167 20.3333 8.34987 20.3172 8.1582 20.2922C5.50826 20.1172 4.09153 18.7 3.9082 16.0501C3.88321 15.8501 3.86621 15.6582 3.86621 15.4583V13.8333C3.8663 12.1585 4.88326 10.7171 6.33301 10.092C6.83301 9.87538 7.36693 9.76685 7.93359 9.76685H16.0664ZM9.91699 14.7083C9.5754 14.7083 9.29212 14.9917 9.29199 15.3333C9.29199 15.6749 9.57533 15.9583 9.91699 15.9583H14.083C14.4247 15.9583 14.708 15.6749 14.708 15.3333C14.7079 14.9917 14.4246 14.7083 14.083 14.7083H9.91699ZM13.1172 4.24146L14.958 5.01685C15.983 5.44185 16.6999 5.88391 17.1416 6.41724C17.2165 6.51716 17.284 6.60879 17.3506 6.71705C17.4255 6.83358 17.4833 6.95059 17.5166 7.07545C17.5499 7.15036 17.5751 7.21732 17.5918 7.29224C17.7167 7.71706 17.725 8.2001 17.6084 8.74146L17.5918 8.73365C17.0918 8.59198 16.5831 8.51685 16.0664 8.51685H10.8506L12.7246 4.15846L12.75 4.09986C12.8667 4.14153 12.9922 4.1998 13.1172 4.24146ZM7.94141 6.25025C8.90807 4.00859 9.99186 3.30872 11.9502 3.84205L9.94141 8.51685H7.93359C7.60026 8.51685 7.27467 8.54198 6.95801 8.60865L7.79199 6.60865L7.8252 6.53346L7.875 6.40064C7.89997 6.34239 7.91646 6.29189 7.94141 6.25025Z" fill="#0F172A"/>
</svg>
