<svg width="24" height="24" viewBox="0 0 24 24" fill="none" xmlns="http://www.w3.org/2000/svg">
<path d="M20.0205 18C20.9603 18.0001 21.6603 18.3403 21.9902 18.9502C22.3101 19.5601 22.2096 20.3297 21.6797 21.0996C21.0199 22.0894 20.3404 22.2802 19.9004 22.2803C19.8304 22.2803 19.77 22.2795 19.71 22.2695C19.2999 22.2195 18.5501 21.9297 18.1201 20.6299C17.9002 19.96 17.9799 19.29 18.3398 18.79C18.6998 18.29 19.3105 18 20.0205 18ZM11.0098 2C15.9858 2 20.0194 6.03379 20.0195 11.0098C20.0195 15.9859 15.9859 20.0195 11.0098 20.0195C6.03379 20.0194 2 15.9858 2 11.0098C2.00013 6.03387 6.03387 2.00013 11.0098 2Z" fill="#292D32"/>
</svg>
