<svg width="24" height="24" viewBox="0 0 24 24" fill="none" xmlns="http://www.w3.org/2000/svg">
<path d="M15.083 3.66699C15.4247 3.66699 15.708 3.95033 15.708 4.29199V5.52539C17.033 5.92539 18.0746 6.96699 18.4746 8.29199H19.708C20.058 8.29199 20.333 8.57533 20.333 8.91699C20.3328 9.26684 20.0579 9.54199 19.708 9.54199H18.667V11.375H19.708C20.058 11.375 20.333 11.65 20.333 12C20.333 12.3417 20.058 12.625 19.708 12.625H18.667V14.458H19.708C20.0579 14.458 20.3328 14.7332 20.333 15.083C20.333 15.4247 20.058 15.708 19.708 15.708H18.4746C18.0746 17.033 17.033 18.0746 15.708 18.4746V19.708C15.708 20.0497 15.4247 20.333 15.083 20.333C14.7415 20.3328 14.458 20.0496 14.458 19.708V18.667H12.6338V19.708C12.6338 20.0495 12.3503 20.3328 12.0088 20.333C11.6588 20.333 11.3838 20.0497 11.3838 19.708V18.667H9.5498V19.708C9.5498 20.0497 9.26647 20.333 8.9248 20.333C8.5749 20.3329 8.2998 20.0496 8.2998 19.708V18.4746C6.96661 18.0745 5.91703 17.0329 5.52539 15.708H4.29199C3.95033 15.708 3.66699 15.4247 3.66699 15.083C3.66717 14.7332 3.95043 14.458 4.29199 14.458H5.33301V12.625H4.29199C3.95033 12.625 3.66699 12.3417 3.66699 12C3.66699 11.65 3.95033 11.375 4.29199 11.375H5.33301V9.54199H4.29199C3.95043 9.54199 3.66717 9.26684 3.66699 8.91699C3.66699 8.57533 3.95033 8.29199 4.29199 8.29199H5.52539C5.92536 6.96709 6.96661 5.92545 8.2998 5.52539V4.29199C8.2998 3.95039 8.5749 3.6671 8.9248 3.66699C9.26647 3.66699 9.5498 3.95033 9.5498 4.29199V5.33301H11.375V4.29199C11.375 3.95033 11.6583 3.66699 12 3.66699C12.3417 3.66699 12.625 3.95033 12.625 4.29199V5.33301H14.458V4.29199C14.458 3.95043 14.7415 3.66717 15.083 3.66699ZM10.1162 7.61621C8.74157 7.61646 7.61646 8.74157 7.61621 10.1162V13.8838C7.61646 15.2584 8.74157 16.3835 10.1162 16.3838H13.8838C15.2584 16.3835 16.3835 15.2584 16.3838 13.8838V10.1162C16.3835 8.74157 15.2584 7.61646 13.8838 7.61621H10.1162ZM13.6582 8.4502C14.7082 8.4502 15.5498 9.30013 15.5498 10.3418V13.6504C15.5496 14.7002 14.6997 15.542 13.6582 15.542H10.3496C9.29992 15.5418 8.45822 14.7001 8.45801 13.6504V10.3418C8.45801 9.29193 9.30812 8.45041 10.3496 8.4502H13.6582Z" fill="#0F172A"/>
</svg>
