<svg width="24" height="24" viewBox="0 0 24 24" fill="none" xmlns="http://www.w3.org/2000/svg">
<path d="M7.59218 5.45024C7.55885 3.74194 8.66636 3.15884 10.058 4.15044L12.6254 6.00005C12.9754 6.25826 13.6004 6.35015 14.017 6.21684L16.475 5.40825C18.0499 4.89163 18.9332 5.76656 18.4418 7.34966L17.5922 10.0499C17.4505 10.4999 17.5915 11.1671 17.8998 11.5254L19.5502 13.4415C20.8502 14.9581 20.2831 16.1088 18.2914 16.0088L15.5082 15.8663C15.0084 15.8414 14.3756 16.1666 14.1088 16.5997L12.642 18.9747C11.592 20.6747 10.3251 20.4832 9.81679 18.5499L9.17519 16.0997C9.05837 15.6414 8.58309 15.1505 8.13319 15.0088L5.44179 14.167C3.85846 13.667 3.64218 12.4415 4.96718 11.4415L7.03359 9.87505C7.38351 9.61668 7.6581 9.04172 7.6498 8.60845L7.59218 5.45024ZM6.65859 16.5333C6.90022 16.2918 7.29976 16.2918 7.5414 16.5333C7.78306 16.7749 7.78306 17.1754 7.5414 17.417L5.01698 19.9415C4.89198 20.0665 4.73293 20.125 4.5746 20.125C4.4164 20.1249 4.25809 20.0663 4.13319 19.9415C3.89176 19.6999 3.89184 19.3003 4.13319 19.0586L6.65859 16.5333Z" fill="#0F172A"/>
</svg>
