<svg width="24" height="24" viewBox="0 0 24 24" fill="none" xmlns="http://www.w3.org/2000/svg">
<path d="M7.47611 6.85328C7.87873 6.72027 8.27411 7.125 8.16556 7.53492C8.13489 7.65041 8.10426 7.76937 8.07474 7.89136L7.25833 11.3836C6.34181 15.3083 7.68334 17.4746 11.6079 18.408L12.565 18.6306C12.7937 18.684 12.8143 18.984 12.5913 19.0584L11.2749 19.4919C7.96668 20.5586 6.22492 19.6665 5.14994 16.3582L4.08353 13.0662C3.01703 9.75805 3.90031 8.0078 7.20853 6.94117L7.47611 6.85328ZM9.49954 6.24976C10.4746 4.23317 12.1332 3.69202 14.9165 4.35035L16.3081 4.67457C19.7998 5.49123 20.866 7.21662 20.0493 10.7L19.2329 14.1834C18.5329 17.1916 17.1493 18.408 14.5493 18.158C14.1328 18.1246 13.6829 18.05 13.1997 17.9334L11.7993 17.6003C8.32465 16.7753 7.25029 15.0582 8.06693 11.575L8.88333 8.08375C9.05 7.37541 9.24954 6.75809 9.49954 6.24976ZM11.8579 11.7332C11.5247 11.65 11.1835 11.8501 11.1001 12.1834C11.0168 12.5166 11.2162 12.8587 11.5493 12.9421L13.9751 13.5584C14.0333 13.5667 14.0834 13.575 14.1333 13.575C14.4166 13.5749 14.6667 13.3914 14.7417 13.1082C14.8249 12.7749 14.6243 12.4337 14.2827 12.3503L11.8579 11.7332ZM12.6831 8.50855C12.3498 8.42522 12.0077 8.62541 11.9243 8.95875C11.8414 9.29183 12.0416 9.63314 12.3745 9.71656L16.4165 10.7419C16.4748 10.7503 16.5248 10.7585 16.5747 10.7586C16.858 10.7586 17.1081 10.575 17.1831 10.2918C17.2665 9.95016 17.0667 9.60806 16.7251 9.53296L12.6831 8.50855Z" fill="#0F172A"/>
</svg>
