<svg width="24" height="24" viewBox="0 0 24 24" fill="none" xmlns="http://www.w3.org/2000/svg">
<path d="M18.7085 10.8583L14.8168 9.18333L13.9501 8.81666C13.8168 8.75 13.7001 8.575 13.7001 8.425V5.875C13.7001 5.075 13.1085 4.125 12.3918 3.75833C12.1418 3.63333 11.8418 3.63333 11.5918 3.75833C10.8835 4.125 10.2918 5.08333 10.2918 5.88333V8.43333C10.2918 8.58333 10.1751 8.75833 10.0418 8.825L5.2918 10.8667C4.7668 11.0833 4.3418 11.7417 4.3418 12.3083V13.4083C4.3418 14.1167 4.87513 14.4667 5.53346 14.1833L9.70846 12.3833C10.0335 12.2417 10.3001 12.4167 10.3001 12.775V13.7V15.2C10.3001 15.3917 10.1918 15.6667 10.0585 15.8L8.12513 17.7417C7.92513 17.9417 7.83346 18.3333 7.92513 18.6167L8.30013 19.75C8.45013 20.2417 9.00846 20.475 9.4668 20.2417L11.4501 18.575C11.7501 18.3167 12.2418 18.3167 12.5418 18.575L14.5251 20.2417C14.9835 20.4667 15.5418 20.2417 15.7085 19.75L16.0835 18.6167C16.1751 18.3417 16.0835 17.9417 15.8835 17.7417L13.9501 15.8C13.8085 15.6667 13.7001 15.3917 13.7001 15.2V12.775C13.7001 12.4167 13.9585 12.25 14.2918 12.3833L18.4668 14.1833C19.1251 14.4667 19.6585 14.1167 19.6585 13.4083V12.3083C19.6585 11.7417 19.2335 11.0833 18.7085 10.8583Z" fill="#0F172A"/>
</svg>
